<svg width="70" height="70" viewBox="0 0 70 70" fill="none" xmlns="http://www.w3.org/2000/svg">
<circle cx="35" cy="35" r="33.5" fill="#C4C4C4" stroke="black" stroke-width="3"/>
<mask id="path-2-inside-1" fill="white">
<path d="M70 35C70 25.7174 66.3125 16.815 59.7487 10.2513C53.185 3.68749 44.2826 7.00815e-07 35 0C25.7174 -7.00815e-07 16.815 3.68749 10.2513 10.2513C3.68749 16.815 1.40163e-06 25.7174 0 35L35 35H70Z"/>
</mask>
<path d="M70 35C70 25.7174 66.3125 16.815 59.7487 10.2513C53.185 3.68749 44.2826 7.00815e-07 35 0C25.7174 -7.00815e-07 16.815 3.68749 10.2513 10.2513C3.68749 16.815 1.40163e-06 25.7174 0 35L35 35H70Z" fill="#D90000" stroke="black" stroke-width="6" mask="url(#path-2-inside-1)"/>
<line y1="34.55" x2="70" y2="34.55" stroke="black" stroke-width="3"/>
<circle cx="35" cy="35" r="11.1" fill="#ADADAD" stroke="black" stroke-width="3"/>
<circle cx="35" cy="35" r="6.5" fill="#ADADAD" stroke="black"/>
</svg>
